<?xml version="1.0" standalone="no"?>
<!DOCTYPE svg PUBLIC "-//W3C//DTD SVG 20010904//EN"
 "http://www.w3.org/TR/2001/REC-SVG-20010904/DTD/svg10.dtd">
<svg version="1.0" xmlns="http://www.w3.org/2000/svg"
 width="536.000000pt" height="536.000000pt" viewBox="0 0 536.000000 536.000000"
 preserveAspectRatio="xMidYMid meet">
<metadata>
Created by potrace 1.11, written by Peter Selinger 2001-2013
</metadata>
<g transform="translate(0.000000,536.000000) scale(0.100000,-0.100000)"
fill="#000000" stroke="none">
<path d="M1799 5356 c-2 -3 -18 -7 -34 -10 -53 -10 -170 -74 -214 -118 -47
-47 -111 -139 -111 -161 0 -7 -4 -17 -9 -22 -17 -18 -29 -107 -26 -189 2 -78
36 -192 69 -234 110 -140 227 -210 366 -218 36 -2 67 -3 69 -4 3 0 -4 -6 -14
-14 -17 -12 -15 -14 27 -31 57 -21 119 -78 149 -136 19 -37 23 -60 23 -140 l1
-96 -71 -69 c-119 -116 -207 -256 -252 -399 -22 -67 -26 -83 -38 -150 -14 -73
-11 -278 5 -353 9 -43 16 -86 15 -97 -5 -70 -13 -136 -18 -143 -3 -5 -8 -24
-11 -42 -3 -19 -11 -40 -17 -47 -6 -7 -8 -13 -4 -13 13 0 -40 -85 -85 -134
-89 -98 -230 -146 -408 -139 -192 8 -317 8 -351 1 -47 -10 -128 -35 -143 -45
-7 -4 -14 -8 -17 -8 -26 -1 -140 -83 -201 -144 -153 -154 -223 -331 -214 -543
4 -102 8 -127 31 -196 80 -238 268 -415 514 -482 119 -33 350 -13 457 39 23
12 47 21 53 21 5 0 10 4 10 9 0 5 14 14 30 21 17 7 30 16 30 21 0 5 5 9 10 9
19 0 114 92 167 162 35 46 98 183 112 243 19 81 20 91 26 207 6 127 9 151 31
228 53 187 202 317 384 335 30 3 78 8 105 11 67 9 114 7 128 -4 7 -5 30 -13
52 -17 22 -5 47 -10 55 -12 37 -10 255 -9 312 2 97 18 106 21 213 72 166 77
340 261 449 473 64 125 143 216 248 288 92 63 165 85 274 84 91 0 173 -26 339
-108 83 -40 164 -76 180 -78 17 -3 52 -10 79 -15 80 -15 213 -6 281 18 87 31
173 86 233 150 61 65 126 189 141 271 19 108 1 268 -41 342 -7 13 -13 25 -13
28 -3 19 -65 101 -112 145 -60 59 -187 127 -265 143 -80 16 -225 7 -298 -18
-36 -12 -72 -28 -80 -34 -8 -7 -28 -18 -43 -26 -16 -8 -65 -51 -110 -95 -115
-114 -173 -154 -281 -196 -110 -42 -263 -43 -385 -2 -113 37 -246 114 -331
193 -91 83 -168 137 -255 179 -134 65 -252 90 -405 87 -91 -2 -111 1 -150 20
-105 51 -182 165 -182 271 -1 110 8 198 24 228 132 253 7 564 -267 659 -45 16
-225 32 -236 22z"/>
<path d="M3331 5334 c-133 -45 -229 -131 -287 -258 -34 -75 -38 -96 -38 -206
0 -81 5 -105 29 -165 32 -78 30 -75 104 -156 180 -197 501 -195 690 3 85 90
130 208 127 339 -3 132 -50 243 -142 332 -125 122 -318 167 -483 111z"/>
<path d="M565 4068 c-52 -11 -126 -38 -145 -53 -8 -6 -27 -17 -42 -25 -82 -41
-196 -190 -234 -306 -23 -72 -26 -228 -5 -306 42 -155 149 -285 293 -356 280
-138 610 -27 747 252 45 91 50 109 56 216 6 85 -8 176 -36 237 -10 23 -19 47
-19 52 0 6 -3 11 -8 11 -4 0 -13 13 -20 29 -35 79 -186 195 -307 236 -57 19
-219 27 -280 13z"/>
<path d="M4220 2385 c-214 -45 -388 -173 -489 -358 -67 -123 -85 -201 -86
-362 0 -94 5 -123 29 -198 85 -261 303 -454 561 -495 75 -12 238 -6 305 12
235 61 434 252 507 486 39 124 38 330 -1 424 -8 20 -15 39 -15 41 0 16 -45
102 -79 152 -34 50 -111 129 -178 183 -34 27 -167 89 -229 105 -74 21 -250 26
-325 10z"/>
<path d="M2578 1595 c-2 -2 -23 -6 -48 -10 -24 -4 -52 -11 -62 -16 -10 -5 -18
-7 -18 -5 0 3 -35 -10 -78 -28 -74 -31 -173 -90 -180 -108 -2 -4 -8 -8 -13 -8
-18 0 -121 -114 -166 -183 -38 -57 -89 -159 -94 -185 -1 -4 -3 -11 -5 -17 -19
-56 -31 -167 -28 -260 3 -120 3 -118 34 -219 47 -149 150 -298 265 -382 22
-16 42 -31 45 -35 11 -12 118 -67 170 -87 177 -68 400 -65 580 7 127 52 238
135 331 251 55 67 125 205 130 255 1 6 5 17 9 25 22 41 33 251 18 345 -22 146
-103 304 -214 420 -100 104 -288 211 -379 217 -5 0 -21 5 -35 10 -22 10 -254
20 -262 13z"/>
</g>
</svg>
