<?xml version="1.0" encoding="UTF-8"?>
<svg width="24px" height="24px" viewBox="0 0 24 24" version="1.1" xmlns="http://www.w3.org/2000/svg" xmlns:xlink="http://www.w3.org/1999/xlink">
    <!-- Generator: Sketch 53.2 (72643) - https://sketchapp.com -->
    <title>Icon/Bitcoin</title>
    <desc>Created with Sketch.</desc>
    <g id="Icon/Bitcoin" stroke="none" stroke-width="1" fill="none" fill-rule="evenodd">
        <path d="M18.7264953,12.5195882 C18.2442286,11.8887178 17.516481,11.4553922 16.543296,11.2198767 C17.7825862,10.5803867 18.3272063,9.4950174 18.1776805,7.96359197 C18.1276929,7.40826515 17.9759823,6.92697896 17.7221991,6.51902614 C17.4682412,6.11098492 17.1255378,5.78295178 16.6927781,5.53479411 C16.260368,5.28632702 15.7900739,5.09718084 15.2829883,4.96678093 C14.7757716,4.83638101 14.1934424,4.74169741 13.536394,4.68286274 L13.536394,1.50251934 L11.6153674,1.50251934 L11.6153674,4.59450022 C11.282714,4.59450022 10.7754099,4.60289886 10.0934988,4.61974034 L10.0934988,1.50251934 L8.17221003,1.50251934 L8.17221003,4.68286274 C7.89767154,4.69130558 7.49436259,4.69559331 6.96210837,4.69559331 L4.31739785,4.68286274 L4.31739785,6.7526409 L5.70206281,6.7526409 C6.33416112,6.7526409 6.70426155,7.03876926 6.81236408,7.61080495 L6.81236408,11.2329167 C6.8956476,11.2329167 6.96210837,11.2372487 7.01205226,11.2456473 L6.81236408,11.2456473 L6.81236408,16.3188228 C6.7459033,16.7478164 6.50474814,16.9625121 6.0888549,16.9625121 L4.70427732,16.9625121 L4.31748524,19.2720935 L6.81258255,19.2720935 C6.97062898,19.2720935 7.19919985,19.2742153 7.49873213,19.2780168 C7.79808963,19.2822603 8.02255313,19.2843821 8.17229742,19.2843821 L8.17229742,22.5025193 L10.093892,22.5025193 L10.093892,19.3222201 C10.443106,19.3308398 10.9504101,19.3349507 11.6157607,19.3349507 L11.6157607,22.5025193 L13.5368309,22.5025193 L13.5368309,19.2843821 C14.2189605,19.2507875 14.8239677,19.1880187 15.3518523,19.0951475 C15.8799992,19.0022762 16.3853807,18.8573776 16.8676473,18.6595234 C17.3498703,18.4619343 17.7531792,18.2156774 18.0774868,17.9211946 C18.4019692,17.6269771 18.6699533,17.2523978 18.8824006,16.7979872 C19.0941487,16.3435767 19.2294735,15.8177335 19.2875011,15.2202367 C19.3960843,14.0510578 19.2088493,13.1507237 18.7264953,12.5195882 Z M11.1492723,6.74791541 C11.2012939,6.74791541 11.3479923,6.74574139 11.5894066,6.74139334 C11.830938,6.73695471 12.0314141,6.73269724 12.1911081,6.72834919 C12.3508412,6.72409173 12.5662642,6.73487127 12.8374943,6.7607331 C13.1086073,6.78659494 13.336987,6.82115288 13.5226333,6.86418045 C13.7082795,6.90720803 13.9127363,6.97836205 14.1353791,7.07750664 C14.3584122,7.17656065 14.5365655,7.29730961 14.6701122,7.43952707 C14.803932,7.58174453 14.9171852,7.76286797 15.0098718,7.98271623 C15.1028315,8.2025192 15.1492723,8.45466079 15.1492723,8.73909571 C15.1492723,8.98050305 15.1159052,9.20039661 15.0491319,9.39877638 C14.9824756,9.59702027 14.8819448,9.76301612 14.7483982,9.89662807 C14.6148125,10.0302853 14.477129,10.1467768 14.3359723,10.2458308 C14.1949717,10.3448848 14.014672,10.4246896 13.7956195,10.4849735 C13.5766061,10.545348 13.3853401,10.5927689 13.2220167,10.627191 C13.0585761,10.6617036 12.8543535,10.685482 12.6091927,10.698345 C12.3639929,10.711208 12.1782296,10.7199947 12.0520198,10.7242521 C11.9256929,10.7285096 11.7530423,10.7285096 11.5338337,10.7242521 C11.3145861,10.7199947 11.1866201,10.7177301 11.1493894,10.7177301 L11.1493894,6.74787012 L11.1492723,6.74787012 L11.1492723,6.74791541 Z M15.5426183,15.5160981 C15.4687852,15.6960581 15.3739792,15.8525575 15.2577929,15.9855964 C15.141403,16.1183065 14.9882392,16.2357325 14.7984235,16.3372578 C14.6086485,16.4390708 14.4243714,16.5210388 14.2462435,16.5836139 C14.0678714,16.6464356 13.8526845,16.7008755 13.6010087,16.7479609 C13.3487627,16.7949231 13.1279966,16.8279568 12.9378959,16.8476373 C12.7480802,16.8672357 12.5214498,16.8828076 12.2578011,16.8946406 C11.994356,16.9061449 11.7888207,16.9121024 11.6416026,16.9121024 C11.494303,16.9121024 11.308234,16.9099659 11.0834362,16.9061449 C10.8585162,16.9024882 10.7152483,16.900516 10.6531846,16.900516 L10.6531846,12.9354397 C10.7151261,12.9354397 10.8992404,12.9316187 11.2054867,12.9236478 C11.5117737,12.9157592 11.7616169,12.9121024 11.9554236,12.9121024 C12.1491895,12.9121024 12.416707,12.9236478 12.7578947,12.9472727 C13.0987566,12.9705689 13.3855774,13.0056159 13.6183165,13.0525369 C13.8507704,13.0995402 14.1044417,13.1717707 14.379819,13.2696393 C14.6549113,13.3673436 14.8778765,13.4865773 15.0484703,13.6273405 C15.2190234,13.7683502 15.362332,13.9479404 15.478559,14.1669738 C15.5950711,14.385884 15.6531846,14.6361844 15.6531846,14.917793 C15.6531438,15.1369907 15.6163699,15.3360971 15.5426183,15.5160981 Z" id="Shape" fill="#FFA200" fill-rule="nonzero" transform="translate(11.817398, 12.002519) rotate(-14.000000) translate(-11.817398, -12.002519) "></path>
    </g>
</svg>