<?xml version="1.0" encoding="UTF-8"?>
<svg width="336px" height="39px" viewBox="0 0 336 39" version="1.1" xmlns="http://www.w3.org/2000/svg" xmlns:xlink="http://www.w3.org/1999/xlink">
    <!-- Generator: Sketch 54 (76480) - https://sketchapp.com -->
    <title>.fromScratch</title>
    <desc>Created with Sketch.</desc>
    <g id="Design" stroke="none" stroke-width="1" fill="none" fill-rule="evenodd">
        <g id="Desktop/Full" transform="translate(-960.000000, -4962.000000)" fill="#FFFFFF" fill-rule="nonzero">
            <g id="Footer" transform="translate(1.000000, 4709.000000)">
                <g id=".fS" transform="translate(867.000000, 253.000000)">
                    <path d="M96,39 C93.804878,39 92,37.1024096 92,34.5 C92,31.7891566 93.804878,30 96,30 C98.195122,30 100,31.7891566 100,34.5 C100,37.1024096 98.195122,39 96,39 Z M117.693878,5.12416555 C115.040816,5.12416555 113.663265,6.59546061 113.663265,9.48731642 L113.663265,11.1108144 L121.163265,11.1108144 L121.163265,16.1842457 L113.867347,16.1842457 L113.867347,38 L107.489796,38 L107.489796,16.1842457 L103,16.1842457 L103,11.1108144 L107.489796,11.1108144 L107.489796,9.3858478 C107.489796,3.70360481 110.908163,0 117.234694,0 C119.428571,0 121.571429,0.456608812 123,1.47129506 L121.214286,6.24032043 C120.244898,5.58077437 119.020408,5.12416555 117.693878,5.12416555 Z M132.161812,15.3555556 C134.02589,12.4518519 137.391586,11 142,11 L142,17.1703704 C141.430421,17.0666667 140.964401,17.0148148 140.498382,17.0148148 C135.579288,17.0148148 132.472492,19.9185185 132.472492,25.5703704 L132.472492,39 L126,39 L126,11.3111111 L132.161812,11.3111111 L132.161812,15.3555556 Z M159.474517,39 C151.115993,39 145,33.1645338 145,24.9744059 C145,16.7842779 151.115993,11 159.474517,11 C167.934974,11 174,16.7842779 174,24.9744059 C174,33.1645338 167.934974,39 159.474517,39 Z M159.974763,33 C164.567823,33 168,29.6916168 168,24.5 C168,19.3083832 164.567823,16 159.974763,16 C155.432177,16 152,19.3083832 152,24.5 C152,29.6916168 155.432177,33 159.974763,33 Z M214.718925,11 C221.363942,11 226,14.7851852 226,23.1333333 L226,39 L219.56103,39 L219.56103,23.962963 C219.56103,19.037037 217.294513,16.6518519 213.379619,16.6518519 C209.155655,16.6518519 206.219485,19.4518519 206.219485,24.9481481 L206.219485,39 L199.780515,39 L199.780515,23.962963 C199.780515,19.037037 197.513998,16.6518519 193.599104,16.6518519 C189.323628,16.6518519 186.43897,19.4518519 186.43897,24.9481481 L186.43897,39 L180,39 L180,11.3111111 L186.129899,11.3111111 L186.129899,14.837037 C188.19037,12.3481481 191.384099,11 195.144457,11 C199.162374,11 202.510638,12.5037037 204.416573,15.6148148 C206.631579,12.762963 210.340426,11 214.718925,11 Z M246.318426,39 C240.663685,39 235.008945,37.2527778 232,34.6833333 L234.334526,29.4930556 C237.239714,31.8055556 241.856887,33.45 246.318426,33.45 C251.973166,33.45 254.359571,31.4458333 254.359571,28.7736111 C254.359571,21.0138889 232.778175,26.1013889 232.778175,12.7402778 C232.778175,6.93333333 237.447227,2 247.407871,2 C251.765653,2 256.330948,3.13055556 259.495528,5.18611111 L257.368515,10.3763889 C254.100179,8.475 250.520572,7.55 247.355993,7.55 C241.753131,7.55 239.470483,9.70833333 239.470483,12.4319444 C239.470483,20.0888889 261,15.1041667 261,28.3111111 C261,34.0666667 256.27907,39 246.318426,39 Z M279.092843,39 C270.266925,39 264,33.1645338 264,24.9744059 C264,16.7842779 270.266925,11 279.092843,11 C284.524178,11 288.858801,13.2010969 291,17.3473492 L285.98646,20.213894 C284.31528,17.6032907 281.808511,16.4259598 279.040619,16.4259598 C274.235977,16.4259598 270.580271,19.702011 270.580271,24.9744059 C270.580271,30.297989 274.235977,33.5228519 279.040619,33.5228519 C281.808511,33.5228519 284.31528,32.345521 285.98646,29.7349177 L291,32.6014625 C288.858801,36.6965265 284.524178,39 279.092843,39 Z M303.161812,15.3555556 C305.02589,12.4518519 308.391586,11 313,11 L313,17.1703704 C312.430421,17.0666667 311.964401,17.0148148 311.498382,17.0148148 C306.579288,17.0148148 303.472492,19.9185185 303.472492,25.5703704 L303.472492,39 L297,39 L297,11.3111111 L303.161812,11.3111111 L303.161812,15.3555556 Z M328.474227,11 C336.412371,11 341,14.7367459 341,22.6197441 L341,38.6416819 L334.917526,38.6416819 L334.917526,35.3144424 C333.371134,37.6691042 330.381443,39 326.257732,39 C319.969072,39 316,35.5703839 316,30.809872 C316,26.2541133 319.092784,22.6709324 327.443299,22.6709324 L334.556701,22.6709324 L334.556701,22.261426 C334.556701,18.5246801 332.28866,16.3235832 327.701031,16.3235832 C324.608247,16.3235832 321.412371,17.3473492 319.350515,19.0365631 L316.824742,14.3784278 C319.762887,12.1261426 324.041237,11 328.474227,11 Z M328.164557,34 C331.253165,34 333.936709,32.6482759 335,29.9931034 L335,27 L328.468354,27 C324.164557,27 323,28.5448276 323,30.4275862 C323,32.6 324.924051,34 328.164557,34 Z M364.214286,32.5508346 L366,37.1426404 C364.469388,38.3808801 362.173469,39 359.877551,39 C353.908163,39 350.489796,35.801214 350.489796,29.7132018 L350.489796,16.4537178 L346,16.4537178 L346,11.2943854 L350.489796,11.2943854 L350.489796,5 L356.867347,5 L356.867347,11.2943854 L364.163265,11.2943854 L364.163265,16.4537178 L356.867347,16.4537178 L356.867347,29.5584219 C356.867347,32.2412747 358.193878,33.6858877 360.642857,33.6858877 C361.969388,33.6858877 363.244898,33.3247344 364.214286,32.5508346 Z M384.092843,39 C375.266925,39 369,33.1645338 369,24.9744059 C369,16.7842779 375.266925,11 384.092843,11 C389.524178,11 393.858801,13.2010969 396,17.3473492 L390.98646,20.213894 C389.31528,17.6032907 386.808511,16.4259598 384.040619,16.4259598 C379.235977,16.4259598 375.580271,19.702011 375.580271,24.9744059 C375.580271,30.297989 379.235977,33.5228519 384.040619,33.5228519 C386.808511,33.5228519 389.31528,32.345521 390.98646,29.7349177 L396,32.6014625 C393.858801,36.6965265 389.524178,39 384.092843,39 Z M416.553232,11.3450135 C423.123574,11.3450135 428,15.083558 428,23.328841 L428,39 L421.58365,39 L421.58365,24.148248 C421.58365,19.2830189 419.171103,16.9272237 415.064639,16.9272237 C410.496198,16.9272237 407.41635,19.6927224 407.41635,25.1725067 L407.41635,39 L401,39 L401,1 L407.41635,1 L407.41635,14.8274933 C409.520913,12.574124 412.754753,11.3450135 416.553232,11.3450135 Z" id=".fromScratch"></path>
                </g>
            </g>
        </g>
    </g>
</svg>