<?xml version="1.0" encoding="UTF-8"?>
<svg width="24px" height="24px" viewBox="0 0 24 24" version="1.1" xmlns="http://www.w3.org/2000/svg" xmlns:xlink="http://www.w3.org/1999/xlink">
    <!-- Generator: Sketch 53.2 (72643) - https://sketchapp.com -->
    <title>Icon/OS/Linux</title>
    <desc>Created with Sketch.</desc>
    <g id="Icon/OS/Linux" stroke="none" stroke-width="1" fill="none" fill-rule="evenodd">
        <path d="M11.8439899,5.7792199 C11.8912881,5.80265545 11.9291267,5.85890077 11.9858845,5.85890077 C12.0379125,5.85890077 12.1183194,5.84015233 12.1230493,5.78859412 C12.1325089,5.72297458 12.0331827,5.68079059 11.9716951,5.65266794 C11.8912881,5.61985817 11.7872321,5.60579684 11.711555,5.64798083 C11.6926357,5.65735505 11.6737165,5.68079059 11.6831761,5.69953903 C11.6973656,5.76047146 11.7919619,5.75109724 11.8439899,5.7792199 L11.8439899,5.7792199 Z M10.8081596,5.85890077 C10.8649174,5.85890077 10.902756,5.80265545 10.9500541,5.7792199 C11.0020822,5.75109724 11.0966785,5.76047146 11.1155978,5.70422614 C11.1250574,5.6854777 11.1061382,5.66204216 11.0872189,5.65266794 C11.0115418,5.61048395 10.9074858,5.62454528 10.8270788,5.65735505 C10.7655912,5.6854777 10.666265,5.72766169 10.6757246,5.79328123 C10.6804545,5.84015233 10.7608614,5.86358788 10.8081596,5.85890077 L10.8081596,5.85890077 Z M21.2657895,18.9265628 C21.095516,18.7390784 21.0151091,18.3828581 20.9252425,18.0032022 C20.8401058,17.6235463 20.7407796,17.2157677 20.4286115,16.9532896 C20.3671239,16.9017314 20.3056362,16.8548603 20.2394188,16.8173634 C20.1779311,16.7798665 20.1117136,16.7470568 20.0454962,16.7236212 C20.4806395,15.4440402 20.310366,14.1691464 19.8704929,13.0161174 C19.3312935,11.6052973 18.3900595,10.3725875 17.671127,9.52890772 C16.862328,8.52117912 16.077178,7.56500872 16.0913675,6.15418868 C16.1150165,4.0028053 16.3325882,0.0047006637 12.5061646,1.35539284e-05 C7.6628299,-0.00936066561 8.87366358,4.84648506 8.82163557,6.33698596 C8.74122865,7.43376965 8.51892715,8.29619785 7.75742628,9.36954598 C6.86349048,10.4241457 5.60535862,12.1255665 5.00940141,13.9019811 C4.72561227,14.7409738 4.59317734,15.5940278 4.71615263,16.4002106 C4.4087144,16.672063 4.17695326,17.0892158 3.93100267,17.3470068 C3.73235027,17.5485525 3.44383131,17.6235463 3.12693343,17.7360369 C2.81003556,17.8485276 2.46475877,18.0172635 2.25191691,18.4156678 C2.15259071,18.5984651 2.11948197,18.7953237 2.11948197,18.9968695 C2.11948197,19.1796667 2.14786089,19.3671511 2.1762398,19.5499484 C2.23299763,19.9296043 2.29448528,20.2858246 2.21407836,20.5248672 C1.96812776,21.199811 1.93501903,21.668522 2.11002234,22.010681 C2.28975546,22.35284 2.64922171,22.5028276 3.06071597,22.5871955 C3.87897466,22.7559315 4.99048214,22.7137475 5.86549866,23.1730843 C6.80200283,23.6605437 7.75269646,23.8339667 8.50946751,23.6605437 C9.05812652,23.5386788 9.50745933,23.2105811 9.73449065,22.7137475 C10.325718,22.7090604 10.9784331,22.4606436 12.0189932,22.4043983 C12.7237363,22.3481529 13.6082124,22.6528151 14.6251235,22.5965698 C14.6535025,22.7043733 14.691341,22.8121768 14.743369,22.9106061 L14.743369,22.9152932 C15.135944,23.6980406 15.869066,24.0542609 16.6494861,23.9933285 C17.4346361,23.932396 18.2623544,23.4777464 18.9339887,22.6856248 C19.5772441,21.9169388 20.6367236,21.5982154 21.3414666,21.1763755 C21.6914732,20.9654556 21.9752624,20.7029774 21.9989114,20.3186344 C22.0178307,19.9342914 21.7907994,19.5077644 21.2657895,18.9265628 Z M11.9811547,4.09186038 C12.444677,3.05132201 13.5987528,3.07007045 14.0622751,4.07311194 C14.3697133,4.73868153 14.2325486,5.52142886 13.8588929,5.96670429 C13.7832158,5.92920741 13.5798335,5.84483944 13.2629357,5.73703591 C13.3149637,5.68079059 13.40956,5.61048395 13.4473986,5.52142886 C13.6744299,4.96834991 13.437939,4.25590922 13.0169851,4.2418479 C12.6717083,4.21841235 12.3595402,4.74805575 12.4588664,5.31988314 C12.2649438,5.22614095 12.0142634,5.1558343 11.8439899,5.11365031 C11.7966918,4.79023974 11.8298005,4.42933229 11.9811547,4.09186038 L11.9811547,4.09186038 Z M10.0561183,3.55284276 C10.5338301,3.55284276 11.0399207,4.21841235 10.9595138,5.12302453 C10.7939701,5.16989563 10.6236966,5.24020228 10.4770722,5.33863158 C10.5338301,4.92147881 10.3209882,4.39652252 10.0230096,4.41995807 C9.62570481,4.45276784 9.55948734,5.41362534 9.93787287,5.73703591 C9.98517106,5.77453279 10.0277394,5.72766169 9.65881354,5.99482695 C8.92096177,5.31050892 9.16218254,3.55284276 10.0561183,3.55284276 L10.0561183,3.55284276 Z M9.41286295,6.39791839 C9.70611173,6.18231134 10.0561183,5.92920741 10.0797674,5.90577186 C10.3020689,5.69953903 10.718293,5.24020228 11.399387,5.24020228 C11.7352041,5.24020228 12.1372387,5.3480058 12.6244101,5.65735505 C12.9223887,5.84952655 13.1588796,5.86358788 13.6933492,6.09325625 C14.090654,6.2573051 14.3413344,6.5479059 14.1899802,6.94631023 C14.0670049,7.27909503 13.6697001,7.62125404 13.1163113,7.7946771 C12.5913014,7.96341305 12.1798071,8.54461466 11.3095204,8.49305646 C11.1250574,8.48368224 10.9784331,8.44618536 10.8554578,8.39462715 C10.4770722,8.23057831 10.2784198,7.90716774 9.90949395,7.69156069 C9.50272951,7.46657942 9.28515784,7.20410127 9.21421055,6.97443289 C9.14799308,6.74476451 9.21421055,6.55259301 9.41286295,6.39791839 L9.41286295,6.39791839 Z M9.56894698,22.052865 C9.44124187,23.6980406 7.49255642,23.6652308 6.00739323,22.8965448 C4.59317734,22.1559814 2.76273737,22.5918826 2.38908166,21.8700677 C2.275566,21.6497736 2.275566,21.2748048 2.51205696,20.6326708 L2.51205696,20.6232965 C2.62557261,20.2670762 2.54043587,19.873359 2.48367804,19.5030773 C2.42692021,19.1374827 2.3985413,18.8000108 2.52624641,18.5656554 C2.69179008,18.251619 2.92828103,18.1391284 3.22625963,18.0360119 C3.71343099,17.8625889 3.78437828,17.8766502 4.15330417,17.5719881 C4.41344421,17.3048228 4.60263698,16.9673509 4.82966829,16.7283083 C5.07088906,16.4705173 5.3026502,16.3486524 5.66684626,16.4048977 C6.04996161,16.4611431 6.38104894,16.7236212 6.70267663,17.1548353 L7.62972117,18.8234464 C8.07905398,19.7561812 9.66827318,21.0920075 9.56894698,22.052865 L9.56894698,22.052865 Z M9.50272951,20.8389036 C9.30880693,20.5295543 9.04866688,20.2014567 8.82163557,19.9202301 C9.15745272,19.9202301 9.49326987,19.8171137 9.61151535,19.5030773 C9.72030119,19.2124765 9.61151535,18.804698 9.26150874,18.335987 C8.62298317,17.482933 7.44998804,16.8126763 7.44998804,16.8126763 C6.81146247,16.4189591 6.45199623,15.9361868 6.28645256,15.4112305 C6.12090889,14.8862742 6.14455799,14.3191339 6.2722631,13.7613678 C6.51821369,12.6880197 7.15200944,11.6427942 7.55877388,10.9865989 C7.66755972,10.906918 7.59661244,11.1365864 7.14727963,11.9615177 C6.74524501,12.7161424 5.99320378,14.4597472 7.02430433,15.8236961 C7.05268324,14.8534644 7.28444438,13.8644843 7.67701936,12.9411236 C8.24459765,11.6568556 9.44124187,9.43047841 9.53583825,7.65875092 C9.58786626,7.6962478 9.75340992,7.80873843 9.82908703,7.85092242 C10.0466587,7.97747438 10.2122024,8.16495877 10.4250442,8.33369472 C11.0115418,8.8024057 11.7730427,8.76490882 12.4304875,8.38994004 C12.7237363,8.2258912 12.9602272,8.03840681 13.1825287,7.96810016 C13.6507808,7.82279976 14.0244365,7.56500872 14.2372784,7.2650337 C14.6014744,8.68991507 15.4528419,10.7475563 15.9967711,11.7505977 C16.28529,12.2849283 16.862328,13.4145217 17.1130084,14.7784707 C17.2690924,14.7737835 17.4440957,14.7972191 17.6285586,14.8440902 C18.2812737,13.170792 17.0751698,11.3662547 16.5265108,10.864734 C16.3042093,10.649127 16.2947497,10.5553848 16.4035355,10.5600719 C16.9994927,11.0850282 17.7846427,12.1396279 18.0684318,13.3254666 C18.2008667,13.8691714 18.2245158,14.4363116 18.0873511,14.9987648 C18.8630414,15.3174883 19.7853561,15.8377575 19.5394055,16.629879 C19.4353495,16.6251919 19.3880513,16.629879 19.3407531,16.629879 C19.4921073,16.1564809 19.1562902,15.8049477 18.2623544,15.4065434 C17.3353099,15.0034519 16.5596195,15.0034519 16.4508337,15.9924321 C15.8785256,16.1892907 15.5852768,16.6814372 15.4386524,17.2720131 C15.3062175,17.7969693 15.2683789,18.4297292 15.2305404,19.1421699 C15.2068913,19.5030773 15.0602669,19.9858496 14.9089127,20.5014317 C13.3906408,21.5747798 11.2811415,22.0434908 9.50272951,20.8389036 L9.50272951,20.8389036 Z M21.6772838,20.299886 C21.6347154,21.0873204 19.7285983,21.2326208 18.6880381,22.479392 C18.063702,23.2152682 17.2974713,23.6230468 16.625837,23.674605 C15.9542027,23.7261632 15.372435,23.4496237 15.031888,22.7699928 C14.8095865,22.2497236 14.9183723,21.6872705 15.083916,21.068572 C15.2589193,20.4030024 15.5190593,19.7186844 15.5521681,19.1656054 C15.5900066,18.4531647 15.632575,17.8297791 15.7508205,17.3516939 C15.8737958,16.8689216 16.0629885,16.545511 16.3988057,16.3627138 C16.4129951,16.3533395 16.4319144,16.3486524 16.4461039,16.3392782 C16.4839424,16.9579767 16.7913807,17.5860494 17.3353099,17.7219756 C17.9312671,17.8766502 18.7873643,17.3704424 19.1515604,16.9579767 C19.5772441,16.9439154 19.894142,16.9157927 20.2204995,17.1970193 C20.6887516,17.5954236 20.5563166,18.6172136 21.0292985,19.146857 C21.5306594,19.6905617 21.6914732,20.0608434 21.6772838,20.299886 Z M9.59732589,6.96974578 C9.69192228,7.05880087 9.81962739,7.18066572 9.97571142,7.30253058 C10.2878795,7.54626028 10.7230228,7.79936421 11.266952,7.79936421 C11.815611,7.79936421 12.3311613,7.52282473 12.7710345,7.29315636 C13.0027956,7.1712915 13.2865848,6.96505867 13.4710477,6.80569694 C13.6555106,6.64633521 13.750107,6.51040902 13.6176721,6.49634769 C13.4852372,6.48228637 13.4946968,6.61821255 13.3338829,6.73539029 C13.1257709,6.88537781 12.8750905,7.08223642 12.6764381,7.19472705 C12.3264315,7.39158566 11.7541234,7.67281225 11.2622222,7.67281225 C10.770321,7.67281225 10.377746,7.44783098 10.0844973,7.2181626 C9.93787287,7.10098486 9.81489757,6.98380711 9.72030119,6.89475203 C9.6493539,6.82913249 9.63043463,6.67914498 9.51691897,6.66508365 C9.4507015,6.66039654 9.43178223,6.83850671 9.59732589,6.96974578 L9.59732589,6.96974578 Z" id="Shape" fill="#FFFFFF" fill-rule="nonzero"></path>
    </g>
</svg>