<?xml version="1.0" encoding="UTF-8"?>
<svg width="24px" height="24px" viewBox="0 0 24 24" version="1.1" xmlns="http://www.w3.org/2000/svg" xmlns:xlink="http://www.w3.org/1999/xlink">
    <!-- Generator: Sketch 53.2 (72643) - https://sketchapp.com -->
    <title>Icon/OS/MacOS</title>
    <desc>Created with Sketch.</desc>
    <g id="Icon/OS/MacOS" stroke="none" stroke-width="1" fill="none" fill-rule="evenodd">
        <path d="M18.7215728,12.6826637 C18.7109458,10.7162347 19.5929862,9.23203615 21.3783209,8.13898022 C20.3793836,6.69764666 18.8703507,5.90464529 16.8777896,5.74925989 C14.9914984,5.59923261 12.9298618,6.85839018 12.1753454,6.85839018 C11.3783209,6.85839018 9.55047821,5.80284107 8.11583422,5.80284107 C5.15090329,5.85106412 2,8.18720328 2,12.9398533 C2,14.3436801 2.25504782,15.7939438 2.76514346,17.2906446 C3.44527099,19.2570737 5.90010627,24.0793793 8.46121148,23.9990075 C9.80021254,23.9668588 10.7460149,23.0399045 12.4888417,23.0399045 C14.1785335,23.0399045 15.0552604,23.9990075 16.5483528,23.9990075 C19.130712,23.9615007 21.3517535,19.5785607 22,17.6067735 C18.5356004,15.9618315 18.7215728,12.7844679 18.7215728,12.6826637 Z M15.7141339,3.88463506 C17.1647184,2.14860505 17.031881,0.567960437 16.989373,0 C15.7088204,0.0750136426 14.2263549,0.878731242 13.381509,1.86998295 C12.4516472,2.93089018 11.9043571,4.24362892 12.021254,5.72246931 C13.4080765,5.82963165 14.6726886,5.11164393 15.7141339,3.88463506 Z" id="Shape" fill="#FFFFFF" fill-rule="nonzero"></path>
    </g>
</svg>