<?xml version="1.0" encoding="UTF-8"?>
<svg width="24px" height="24px" viewBox="0 0 24 24" version="1.1" xmlns="http://www.w3.org/2000/svg" xmlns:xlink="http://www.w3.org/1999/xlink">
    <!-- Generator: Sketch 53.2 (72643) - https://sketchapp.com -->
    <title>Icon/Reddit</title>
    <desc>Created with Sketch.</desc>
    <g id="Icon/Reddit" stroke="none" stroke-width="1" fill="none" fill-rule="evenodd" opacity="0.6">
        <path d="M16.1223633,16.2372152 C15.088623,16.2372152 14.245752,15.3310013 14.245752,14.2192236 C14.245752,13.1076035 15.088623,12.2012321 16.1223633,12.2012321 C17.15625,12.2012321 17.9991211,13.1076035 17.9991211,14.2192236 C17.9991211,15.3310013 17.15625,16.2372152 16.1223633,16.2372152 M16.4538574,19.5490778 C15.1715332,20.9240718 12.7185058,21.0326033 11.9982422,21.0326033 C11.277832,21.0326033 8.82128906,20.9240718 7.54248045,19.5490778 C7.35175781,19.343829 7.35175781,19.0146117 7.54248045,18.8092053 C7.73349607,18.6039565 8.03964844,18.6039565 8.23066406,18.8092053 C9.03735352,19.6769843 10.7627929,19.9868265 11.9982422,19.9868265 C13.2301758,19.9868265 14.9589844,19.6769843 15.7659668,18.8092053 C15.9566895,18.6039565 16.2628418,18.6039565 16.4538574,18.8092053 C16.6412109,19.0146117 16.6412109,19.343829 16.4538574,19.5490778 M5.99003906,14.2193812 C5.99003906,13.107761 6.83291017,12.2013896 7.86679687,12.2013896 C8.9005371,12.2013896 9.74340821,13.107761 9.74340821,14.2193812 C9.74340821,15.3310013 8.9005371,16.2375302 7.86679687,16.2375302 C6.83291017,16.2372152 5.99003906,15.3310013 5.99003906,14.2193812 M24,12.2013896 C24,10.6403642 22.8257812,9.37768214 21.3741211,9.37768214 C20.6645508,9.37768214 20.0232422,9.67964839 19.5515625,10.1717416 C17.7577148,8.77737257 15.2833008,7.87871972 12.5276367,7.77412629 L13.7235352,1.7199941 L17.6317383,2.61486647 C17.6786133,3.68395621 18.4924804,4.53614063 19.4976562,4.53614063 C20.5349121,4.53614063 21.3742676,3.63354974 21.3742676,2.51799156 C21.3742676,1.40259085 20.5349121,0.5 19.4976562,0.5 C18.759082,0.5 18.1287598,0.960904186 17.8226074,1.62705719 L13.4569336,0.627748909 C13.3344727,0.600655431 13.2084961,0.624125934 13.1039063,0.697530377 C12.9996094,0.77109229 12.9273926,0.883404197 12.9023438,1.01509114 C12.9023438,1.01509114 11.5911621,7.73159581 11.5911621,7.7703458 C8.78525392,7.84768824 6.26381835,8.75027909 4.44125978,10.1640231 C3.96943358,9.67602542 3.3317871,9.37768214 2.62587893,9.37768214 C1.17421875,9.37768214 0,10.6441447 0,12.2013896 C0,13.3478218 0.6375,14.3356311 1.55244142,14.7770027 C1.51289062,15.0561286 1.49121094,15.3425003 1.49121094,15.6331251 C1.49121094,19.9789505 6.19541017,23.5 11.9982422,23.5 C17.8009277,23.5 22.505127,19.9789505 22.505127,15.6331251 C22.505127,15.3464383 22.4835938,15.0636895 22.444043,14.7848788 C23.3553223,14.3433496 24,13.3556978 24,12.2013896" id="Shape" fill="#FF4501" fill-rule="nonzero"></path>
    </g>
</svg>