<?xml version="1.0" encoding="UTF-8"?>
<svg width="132px" height="113px" viewBox="0 0 132 113" version="1.1" xmlns="http://www.w3.org/2000/svg" xmlns:xlink="http://www.w3.org/1999/xlink">
    <!-- Generator: Sketch 53.2 (72643) - https://sketchapp.com -->
    <title>Group</title>
    <desc>Created with Sketch.</desc>
    <defs>
        <filter x="-37.5%" y="-37.5%" width="175.0%" height="175.0%" filterUnits="objectBoundingBox" id="filter-1">
            <feGaussianBlur stdDeviation="3" in="SourceGraphic"></feGaussianBlur>
        </filter>
    </defs>
    <g id="Homepage" stroke="none" stroke-width="1" fill="none" fill-rule="evenodd">
        <g id="Desktop/Roadmap" transform="translate(-897.000000, -158.000000)">
            <g id="Group" transform="translate(902.000000, 163.000000)">
                <path id="Path-3" d="M59.0942518,4.47253561 L59.0942518,27.0979689 L91.7883708,44.5351367 C94.4685659,45.964599 95.4824851,49.2961346 94.0530228,51.9763296 C93.0971503,53.7685592 91.2313018,54.8880591 89.2001004,54.8880591 L30.193223,54.8880591 C27.7079416,54.8880591 25.693223,56.9027778 25.693223,59.3880591 C25.693223,61.1164983 26.6832097,62.6921943 28.2404191,63.4422615 L58.31123,77.9265891 C58.4809919,78.0083589 58.5903667,78.1786236 58.594151,78.3670144 L59.0043282,98.7867986 C61.2588448,98.9902839 63.046826,100.86229 63.0933442,103.178099 C63.1432566,105.66288 61.1694063,107.717654 58.6846262,107.767566 C56.1998461,107.817479 54.1450718,105.843628 54.0951594,103.358848 C54.0486412,101.043039 55.7600036,99.1007405 58.0045299,98.8068818 L57.6005219,78.6942188 L27.8064627,64.3431954 C25.9032068,63.4264465 24.693223,61.5005959 24.693223,59.3880591 C24.693223,56.350493 27.1556569,53.8880591 30.193223,53.8880591 L89.2001004,53.8880591 C90.8619925,53.8880591 92.3885958,52.9721047 93.1706733,51.505735 C94.3402333,49.3128481 93.5106631,46.5870463 91.3177762,45.4174863 L58.3589545,27.8391412 C58.1960246,27.7522437 58.0942518,27.5826211 58.0942518,27.3979664 L58.0942518,4.47253561 C55.8442766,4.22381347 54.0942518,2.31627683 54.0942518,3.30677918e-13 C54.0942518,-2.48528137 56.1089705,-4.5 58.5942518,-4.5 C61.0795332,-4.5 63.0942518,-2.48528137 63.0942518,-2.45412789e-13 C63.0942518,2.31627683 61.3442271,4.22381347 59.0942518,4.47253561 Z" fill="#50E3C2" fill-rule="nonzero"></path>
                <path d="" id="Path-5" stroke="#979797"></path>
                <path id="Path-6" d="M20.8301487,25.6346102 L20.7455648,30.4804208 C20.723249,31.7588913 21.3998937,32.9477824 22.5104922,33.5814668 L96.3936508,75.7376644 C97.8215631,76.5524015 98.6915349,78.0809758 98.6628431,79.7247236 L98.5588119,85.6846699 C100.804104,85.9726216 102.520571,87.9104099 102.480146,90.2263339 C102.436772,92.7112368 100.387199,94.6904869 97.9022957,94.6471127 C95.4173929,94.6037386 93.4381428,92.5541651 93.4815169,90.0692623 C93.5219415,87.7533382 95.3049909,85.8766342 97.5589642,85.6672175 L97.6629954,79.7072712 C97.6853112,78.4288007 97.0086665,77.2399096 95.8980681,76.6062252 L22.0149094,34.4500275 C20.5869972,33.6352904 19.7170254,32.1067162 19.7457171,30.4629684 L19.8303011,25.6171578 C17.5850093,25.329206 15.8685422,23.3914178 15.9089668,21.0754937 C15.9523409,18.5905909 18.0019144,16.6113408 20.4868172,16.6547149 C22.9717201,16.6980891 24.9509702,18.7476625 24.907596,21.2325654 C24.8671714,23.5484894 23.0841221,25.4251934 20.8301487,25.6346102 Z" fill="#50E3C2" fill-rule="nonzero"></path>
                <path id="Path-7" d="M4.47253561,87.5658887 L17.701921,87.5658887 C18.8086968,87.5658887 19.8766552,87.1580133 20.7016555,86.4202281 L96.8202405,18.3485394 C97.8285742,17.4468019 99.1338567,16.9482875 100.486583,16.9482875 L117.211096,16.9482875 C117.459819,14.6983123 119.367355,12.9482875 121.683632,12.9482875 C124.168913,12.9482875 126.183632,14.9630062 126.183632,17.4482875 C126.183632,19.9335689 124.168913,21.9482875 121.683632,21.9482875 C119.367355,21.9482875 117.459819,20.1982628 117.211096,17.9482875 L100.486583,17.9482875 C99.3798069,17.9482875 98.3118485,18.3561629 97.4868481,19.0939482 L21.3682632,87.1656369 C20.3599295,88.0673743 19.054647,88.5658887 17.701921,88.5658887 L4.47253561,88.5658887 C4.22381347,90.8158639 2.31627683,92.5658887 0,92.5658887 C-2.48528137,92.5658887 -4.5,90.5511701 -4.5,88.0658887 C-4.5,85.5806073 -2.48528137,83.5658887 0,83.5658887 C2.31627683,83.5658887 4.22381347,85.3159135 4.47253561,87.5658887 Z" fill="#50E3C2" fill-rule="nonzero"></path>
                <circle id="Oval" fill="#FFFFFF" opacity="0.140508743" filter="url(#filter-1)" cx="58" cy="54" r="12"></circle>
                <circle id="Oval" fill="#3C9783" opacity="0.37906901" cx="58" cy="54" r="6"></circle>
                <circle id="Oval" fill="#50E3C2" cx="58" cy="54" r="4"></circle>
            </g>
        </g>
    </g>
</svg>