<?xml version="1.0" encoding="UTF-8"?>
<svg width="24px" height="24px" viewBox="0 0 24 24" version="1.1" xmlns="http://www.w3.org/2000/svg" xmlns:xlink="http://www.w3.org/1999/xlink">
    <!-- Generator: Sketch 53.2 (72643) - https://sketchapp.com -->
    <title>Icon/Slack</title>
    <desc>Created with Sketch.</desc>
    <g id="Icon/Slack" stroke="none" stroke-width="1" fill="none" fill-rule="evenodd">
        <path d="M23.8950007,12.8703014 C23.5305023,11.746775 22.3245076,11.1332607 21.2010126,11.4977692 L19.0470221,12.1982856 C18.5700242,10.7282512 18.0615264,9.16521454 17.5845285,7.69818016 C18.8940227,7.27217017 19.738519,6.99766374 19.738519,6.99766374 C20.8620141,6.6331552 21.4755114,5.42712693 21.111013,4.3036006 C20.7465146,3.18007427 19.5405199,2.56655989 18.4170248,2.93106844 L16.2630343,3.63158485 C15.8370362,2.32205416 15.5625374,1.47753437 15.5625374,1.47753437 C15.199539,0.355508078 13.9935443,-0.259506335 12.8700493,0.105002207 C11.7465542,0.469510749 11.1330569,1.67553901 11.4975553,2.79906534 L12.1980522,4.95311582 L7.69807207,6.4156501 C7.27357394,5.10611941 6.99907515,4.26159962 6.99907515,4.26159962 C6.63307676,3.13807329 5.42708208,2.52305887 4.30508702,2.88906745 C3.18159197,3.25357599 2.56659468,4.45960426 2.93259307,5.58163055 L3.63308998,7.73718107 L1.41009977,8.46019801 C0.3601044,8.83970691 -0.229393003,9.97223345 0.0841056154,11.061259 C0.411104175,12.1952855 1.61559887,12.8868018 2.73009396,12.5252933 C2.73909392,12.5222932 3.61359007,12.2387866 4.95308417,11.8022763 L6.41557772,16.3023818 L4.19258752,17.0253987 C3.14409213,17.4049076 2.55459473,18.5374342 2.86659336,19.6264597 C3.19359192,20.7604863 4.39808661,21.4535025 5.5125817,21.090494 C5.52158166,21.0874939 6.39607781,20.8039873 7.7370719,20.3674771 L8.46006872,22.5905292 C8.83956704,23.6390537 9.97206205,24.2285675 11.0610573,23.9165602 C12.1950523,23.5895526 12.8880492,22.3850243 12.5250508,21.2704982 C12.5220508,21.261498 12.2385521,20.3884776 11.803554,19.0474461 C13.2735475,18.5704349 14.8365406,18.061923 16.3035342,17.5849119 L17.026531,19.807964 C17.4060293,20.8564885 18.5385243,21.4460023 19.6275195,21.133995 C20.7615145,20.8069874 21.4545115,19.6024591 21.0915131,18.487933 C21.0885131,18.4789328 20.8050143,17.6059123 20.3685163,16.2648809 C21.6780105,15.8388709 22.5225068,15.5643645 22.5225068,15.5643645 C23.6445018,15.199856 24.2594991,13.9938277 23.8950007,12.8703014 Z M10.4820598,14.9823509 C10.0035619,13.5123164 9.49656415,11.9492798 9.01956625,10.4822454 C10.4895598,10.0052342 12.0525529,9.4967223 13.5195464,9.01971113 L14.98204,13.5198166 L10.4820598,14.9823509 Z" id="Shape" fill="#FFFFFF" fill-rule="nonzero"></path>
    </g>
</svg>