<?xml version="1.0" encoding="UTF-8"?>
<svg width="24px" height="24px" viewBox="0 0 24 24" version="1.1" xmlns="http://www.w3.org/2000/svg" xmlns:xlink="http://www.w3.org/1999/xlink">
    <!-- Generator: Sketch 53.2 (72643) - https://sketchapp.com -->
    <title>Icon/Twitter</title>
    <desc>Created with Sketch.</desc>
    <g id="Icon/Twitter" stroke="none" stroke-width="1" fill="none" fill-rule="evenodd">
        <path d="M24,4.36631471 C23.1166652,4.76786846 22.1688598,5.04019762 21.173015,5.16177817 C22.1898402,4.53709876 22.9681944,3.54626961 23.337097,2.3692476 C22.3832915,2.94774088 21.3304662,3.36780127 20.2086605,3.59551335 C19.3103453,2.61236847 18.0325785,2 16.6153213,2 C13.8963364,2 11.6917446,4.26171198 11.6917446,7.04961589 C11.6917446,7.44501417 11.7352349,7.83119937 11.819235,8.20048721 C7.72801263,7.98967249 4.10020278,5.97876565 1.6721596,2.92311901 C1.24772753,3.66780992 1.00627615,4.53552972 1.00627615,5.46178682 C1.00627615,7.21424448 1.87612071,8.76051408 3.19588757,9.66516669 C2.38902351,9.6374872 1.63015953,9.40977512 0.9658055,9.0312742 L0.9658055,9.09435769 C0.9658055,11.5406935 2.66349455,13.5823777 4.91455705,14.0470551 C4.502125,14.1609112 4.06722233,14.2239947 3.61730003,14.2239947 C3.29937794,14.2239947 2.99192646,14.1916885 2.69047498,14.1301338 C3.31733875,16.1379831 5.135028,17.5980761 7.28863936,17.6381068 C5.60444053,18.9920683 3.48082922,19.7967448 1.17427643,19.7967448 C0.776864014,19.7967448 0.385412394,19.772123 0,19.7275059 C2.1791016,21.1630173 4.76612543,22 7.54660057,22 C16.6033997,22 21.553996,14.3040157 21.553996,7.62967821 L21.5374862,6.9757905 C22.5047819,6.26799217 23.3416068,5.37870812 24,4.36631471 Z" id="Path" fill="#00C7E3" fill-rule="nonzero"></path>
    </g>
</svg>