<?xml version="1.0" encoding="UTF-8"?>
<svg width="64px" height="67px" viewBox="0 0 64 67" version="1.1" xmlns="http://www.w3.org/2000/svg" xmlns:xlink="http://www.w3.org/1999/xlink">
    <!-- Generator: Sketch 53.2 (72643) - https://sketchapp.com -->
    <title>Group </title>
    <desc>Created with Sketch.</desc>
    <g id="Symbols" stroke="none" stroke-width="1" fill="none" fill-rule="evenodd">
        <g id="XEL-Favicon/Black">
            <g id="Group-">
                <circle id="Oval" fill="#887EDF" cx="7" cy="23" r="7"></circle>
                <circle id="Oval-" fill="#887EDF" cx="53" cy="46" r="9"></circle>
                <circle id="Oval-" fill="#3629A2" cx="32" cy="57" r="10"></circle>
                <path d="M24.6114488,17.3618302 C25.1085871,14.7406922 24.2381042,13.0638956 22,12.3314404 C22.11952,12.2176007 22.2369278,12.1066784 22.3522234,11.9986737 C22.2380961,11.9981796 22.120761,11.9977364 22,11.9977364 C18.6862915,11.9977364 16,9.31195164 16,5.99886821 C16,2.68578478 18.6862915,0 22,0 C25.3137085,0 28,2.68578478 28,5.99886821 C28,6.872865 27.5215321,8.1541011 26.9815121,9.21841485 C27.0962647,9.42741771 27.1024273,9.78641792 27,10.2954155 C26.5030047,12.7651607 28.081828,14.4101696 29.8306943,15.114016 C30.3468871,15.0388493 30.874115,15 31.4099705,15 C34.3883117,15 37.1001246,16.2001537 39.1320346,18.1657103 C40.2361024,19.233724 45.7965968,23.9574095 51.338926,18.8818557 C52.6117456,17.1351561 54.6733078,16 57,16 C60.8659932,16 64,19.1340068 64,23 C64,26.8659932 60.8659932,30 57,30 C56.2976109,30 55.6193839,29.8965493 54.9797247,29.7040534 C54.7415219,29.7335065 54.4570261,29.6839754 54.1215622,29.541481 C51.756584,28.5369135 47.0826065,24.3708643 42.2305801,30.9169757 C39.9106363,35.9063139 36.4286528,39 31.4099705,39 C30.0119784,39 28.6727087,38.7355781 27.4349113,38.2516948 C27.1817399,38.3954029 26.8365657,38.4744815 26.3857087,38.4744815 C20.0401768,38.4744815 20.0401768,44.5260823 20.0401768,45.9243525 C20.0401768,50.9366942 16.0017457,55 11.0200884,55 C6.03843113,55 2,50.9366942 2,45.9243525 C2,40.9120108 6.03843113,36.8487049 11.0200884,36.8487049 C12.1019834,36.8487049 20.2576845,39.0143571 20.4380324,30.3042986 C20.1527596,29.2545852 20,28.1460545 20,27 C20,23.0516709 21.8131114,19.5487154 24.6114488,17.3618302 Z" id="Combined-Shape" fill="#000000"></path>
                <circle id="Oval-" fill="#3629A2" cx="42" cy="6" r="6"></circle>
            </g>
        </g>
    </g>
</svg>